<svg width="94" height="94" viewBox="0 0 94 94" fill="none" xmlns="http://www.w3.org/2000/svg">
<g filter="url(#filter0_d_41_308)">
<path d="M47 0.333374C52.658 0.333374 58.0842 2.58099 62.085 6.58176C66.0857 10.5825 68.3333 16.0088 68.3333 21.6667C68.3333 27.3247 66.0857 32.7509 62.085 36.7517C58.0842 40.7524 52.658 43 47 43C41.3421 43 35.9158 40.7524 31.9151 36.7517C27.9143 32.7509 25.6667 27.3247 25.6667 21.6667C25.6667 16.0088 27.9143 10.5825 31.9151 6.58176C35.9158 2.58099 41.3421 0.333374 47 0.333374ZM47 53.6667C70.5733 53.6667 89.6667 63.2134 89.6667 75V85.6667H4.33334V75C4.33334 63.2134 23.4267 53.6667 47 53.6667Z" fill="#686868"/>
</g>
<defs>
<filter id="filter0_d_41_308" x="0.333344" y="0.333374" width="93.3333" height="93.3334" filterUnits="userSpaceOnUse" color-interpolation-filters="sRGB">
<feFlood flood-opacity="0" result="BackgroundImageFix"/>
<feColorMatrix in="SourceAlpha" type="matrix" values="0 0 0 0 0 0 0 0 0 0 0 0 0 0 0 0 0 0 127 0" result="hardAlpha"/>
<feOffset dy="4"/>
<feGaussianBlur stdDeviation="2"/>
<feComposite in2="hardAlpha" operator="out"/>
<feColorMatrix type="matrix" values="0 0 0 0 0 0 0 0 0 0 0 0 0 0 0 0 0 0 0.25 0"/>
<feBlend mode="normal" in2="BackgroundImageFix" result="effect1_dropShadow_41_308"/>
<feBlend mode="normal" in="SourceGraphic" in2="effect1_dropShadow_41_308" result="shape"/>
</filter>
</defs>
</svg>
